<svg width="16" height="16" viewBox="0 0 16 16" fill="none" xmlns="http://www.w3.org/2000/svg">
<path d="M7.99996 4.33335C9.83996 4.33335 11.3333 5.82668 11.3333 7.66668C11.3333 8.00668 11.2666 8.33335 11.1733 8.64002L13.2133 10.68C14.14 9.86002 14.8733 8.83335 15.3333 7.66002C14.18 4.74002 11.3333 2.66668 7.99996 2.66668C7.15329 2.66668 6.33996 2.80002 5.57329 3.04668L7.01996 4.49335C7.33329 4.40002 7.65996 4.33335 7.99996 4.33335ZM1.80663 2.10668C1.54663 2.36668 1.54663 2.78668 1.80663 3.04668L3.11996 4.36002C2.03996 5.22002 1.17996 6.35335 0.666626 7.66668C1.81996 10.5933 4.66663 12.6667 7.99996 12.6667C9.01329 12.6667 9.97996 12.4667 10.8733 12.12L12.6866 13.9333C12.9466 14.1933 13.3666 14.1933 13.6266 13.9333C13.8866 13.6733 13.8866 13.2533 13.6266 12.9933L2.75329 2.10668C2.49329 1.84668 2.06663 1.84668 1.80663 2.10668ZM7.99996 11C6.15996 11 4.66663 9.50668 4.66663 7.66668C4.66663 7.15335 4.78663 6.66668 4.99329 6.24002L6.03996 7.28668C6.01996 7.40668 5.99996 7.53335 5.99996 7.66668C5.99996 8.77335 6.89329 9.66668 7.99996 9.66668C8.13329 9.66668 8.25329 9.64668 8.37996 9.62002L9.42663 10.6667C8.99329 10.88 8.51329 11 7.99996 11ZM9.97996 7.44668C9.87996 6.51335 9.14663 5.78668 8.21996 5.68668L9.97996 7.44668Z" fill="#4A6958"/>
</svg>
