<svg width="320" height="295" viewBox="0 0 320 295" fill="none" xmlns="http://www.w3.org/2000/svg">
<path fill-rule="evenodd" clip-rule="evenodd" d="M15.67 224H106.67C107.245 224.003 107.795 224.232 108.202 224.638C108.608 225.045 108.837 225.595 108.84 226.17V287.34C108.838 287.821 108.677 288.287 108.382 288.667C108.087 289.047 107.675 289.319 107.21 289.44H120.37C121.042 289.448 121.683 289.722 122.154 290.202C122.624 290.681 122.885 291.328 122.88 292C122.877 292.672 122.609 293.315 122.133 293.79C121.656 294.264 121.012 294.53 120.34 294.53H2.54C1.86808 294.53 1.22353 294.264 0.747475 293.79C0.271419 293.315 0.00264536 292.672 0 292H0C0 291.666 0.065699 291.336 0.193346 291.028C0.320993 290.72 0.508088 290.44 0.743949 290.204C0.97981 289.968 1.25982 289.781 1.56798 289.653C1.87615 289.526 2.20644 289.46 2.54 289.46H15.13C14.6648 289.339 14.2527 289.067 13.9579 288.687C13.6631 288.307 13.5021 287.841 13.5 287.36V226.17C13.5026 225.595 13.7321 225.045 14.1385 224.638C14.5449 224.232 15.0953 224.003 15.67 224V224ZM57.87 290.39H65C65.3218 290.39 65.6306 290.517 65.8592 290.744C66.0877 290.97 66.2174 291.278 66.22 291.6C66.22 291.924 66.0915 292.234 65.8627 292.463C65.6339 292.691 65.3236 292.82 65 292.82H57.87C57.5464 292.82 57.2361 292.691 57.0073 292.463C56.7785 292.234 56.65 291.924 56.65 291.6C56.6526 291.278 56.7823 290.97 57.0108 290.744C57.2394 290.517 57.5482 290.39 57.87 290.39ZM83.18 273.12C83.0403 273.226 82.8852 273.311 82.72 273.37C82.5524 273.426 82.3766 273.453 82.2 273.45C82.0003 273.443 81.8037 273.399 81.62 273.32C81.4284 273.246 81.2521 273.138 81.1 273L77.2 268.89L75.34 272.35C75.1949 272.628 75.0206 272.889 74.82 273.13C74.6382 273.355 74.4262 273.553 74.19 273.72C73.9826 273.894 73.7378 274.019 73.4747 274.084C73.2116 274.149 72.9371 274.152 72.6724 274.094C72.4076 274.036 72.1597 273.918 71.9478 273.749C71.7359 273.58 71.5656 273.365 71.45 273.12C71.3292 272.92 71.2351 272.705 71.17 272.48C69.31 265.74 66.55 258.92 64.66 252.17C64.6026 251.97 64.6003 251.758 64.6532 251.556C64.7061 251.355 64.8123 251.171 64.9606 251.025C65.109 250.878 65.294 250.775 65.4963 250.725C65.6985 250.675 65.9105 250.68 66.11 250.74C72.19 252.56 79.94 256.05 86.11 258.4C88.01 259.13 88.11 260.9 86.55 262.08C86.2973 262.268 86.0258 262.428 85.74 262.56C84.56 263.07 83.36 263.68 82.18 264.22L86 268.33C86.1378 268.473 86.2435 268.643 86.31 268.83C86.3793 269.008 86.41 269.199 86.4 269.39C86.3769 269.765 86.2209 270.12 85.96 270.39C85.0732 271.322 84.1351 272.203 83.15 273.03L83.18 273.12ZM82.18 271.58L84.51 269.38C83.68 268.5 80.13 265.05 79.79 264.28C79.6949 264.066 79.6877 263.824 79.77 263.605C79.8524 263.386 80.0176 263.208 80.23 263.11C81.66 262.51 83.51 261.65 84.89 260.93C85.0613 260.851 85.2253 260.758 85.38 260.65C85.4924 260.564 85.5963 260.466 85.69 260.36L85.76 260.25L85.65 260.17L85.38 260.05L66.76 252.87L72.87 271.92C72.8954 272.017 72.9323 272.111 72.98 272.2L73.05 272.31L73.16 272.25C73.2778 272.166 73.3823 272.065 73.47 271.95C73.5825 271.805 73.6828 271.651 73.77 271.49C74.53 270.07 75.44 268.12 76.29 266.83L76.39 266.72C76.4727 266.637 76.5709 266.571 76.679 266.527C76.7871 266.482 76.903 266.459 77.02 266.459C77.137 266.459 77.2529 266.482 77.361 266.527C77.4691 266.571 77.5673 266.637 77.65 266.72L82.23 271.54L82.18 271.58ZM26.73 237.15H44C44.3711 237.151 44.7383 237.226 45.0801 237.371C45.422 237.515 45.7317 237.726 45.9913 237.991C46.2509 238.256 46.4552 238.571 46.5923 238.915C46.7294 239.26 46.7966 239.629 46.79 240V251C46.7744 251.731 46.4742 252.428 45.9532 252.941C45.4322 253.455 44.7315 253.745 44 253.75H26.73C25.9882 253.747 25.2775 253.452 24.753 252.927C24.2285 252.402 23.9326 251.692 23.93 250.95V240C23.9326 239.258 24.2285 238.548 24.753 238.023C25.2775 237.498 25.9882 237.203 26.73 237.2V237.15ZM52.56 237.15H69.83C70.5718 237.153 71.2825 237.448 71.807 237.973C72.3315 238.498 72.6274 239.208 72.63 239.95V247.57C70.85 246.91 69.14 246.32 67.56 245.85H67.46C66.377 245.551 65.233 245.551 64.15 245.85C63.1005 246.134 62.1425 246.685 61.37 247.45C60.746 248.08 60.2592 248.833 59.94 249.66C59.8696 249.833 59.8095 250.01 59.76 250.19C59.4646 251.277 59.4646 252.423 59.76 253.51L59.83 253.76H52.56C51.8268 253.755 51.1246 253.463 50.6034 252.948C50.0821 252.432 49.783 251.733 49.77 251V240C49.77 239.259 50.0636 238.548 50.5866 238.024C51.1095 237.499 51.8191 237.203 52.56 237.2V237.15ZM78.39 237.15H95.66C96.4018 237.153 97.1125 237.448 97.637 237.973C98.1615 238.498 98.4574 239.208 98.46 239.95V251C98.4574 251.742 98.1615 252.452 97.637 252.977C97.1125 253.502 96.4018 253.797 95.66 253.8H88.18L87.88 253.68C85.96 252.93 83.88 252.07 81.66 251.18C79.66 250.36 77.66 249.52 75.61 248.74V240C75.6126 239.26 75.9071 238.551 76.4295 238.027C76.9518 237.502 77.6599 237.205 78.4 237.2L78.39 237.15ZM36.92 269.67C35.98 269.67 35.98 266.21 36.92 266.21H63.92C64.32 267.38 64.71 268.54 65.07 269.67H36.92ZM90.7 266.21H98.21C99.14 266.21 99.14 269.67 98.21 269.67H91.5V269.56C91.5157 269.159 91.4923 268.757 91.43 268.36C91.43 268.19 91.37 268.02 91.32 267.84C91.2687 267.582 91.1985 267.328 91.11 267.08C91.0003 266.778 90.8631 266.487 90.7 266.21ZM24.86 269.67C23.94 269.67 23.94 266.21 24.86 266.21H33.61C34.54 266.21 34.54 269.67 33.61 269.67H24.86ZM24.56 262.43C23.63 262.43 23.63 258.96 24.56 258.96H33.31C34.24 258.96 34.24 262.43 33.31 262.43H24.56ZM36.92 262.43C35.98 262.43 35.98 258.96 36.92 258.96H61.43C61.81 260.13 62.2 261.28 62.6 262.43H36.92ZM92.57 259H98.21C99.14 259 99.14 262.47 98.21 262.47H92.33C92.6612 261.507 92.7639 260.48 92.63 259.47C92.63 259.33 92.63 259.19 92.57 259.05V259ZM105.4 233H17.21V286.2H105.4V233ZM27.92 227.5C28.1791 227.5 28.4324 227.577 28.6478 227.721C28.8632 227.865 29.0311 228.069 29.1303 228.309C29.2294 228.548 29.2554 228.811 29.2048 229.066C29.1543 229.32 29.0295 229.553 28.8463 229.736C28.6631 229.92 28.4297 230.044 28.1756 230.095C27.9215 230.145 27.6581 230.119 27.4187 230.02C27.1793 229.921 26.9747 229.753 26.8308 229.538C26.6868 229.322 26.61 229.069 26.61 228.81C26.61 228.463 26.748 228.129 26.9937 227.884C27.2394 227.638 27.5726 227.5 27.92 227.5ZM23.35 227.5C23.6072 227.508 23.8565 227.591 24.0666 227.74C24.2767 227.889 24.4383 228.096 24.5314 228.336C24.6244 228.576 24.6447 228.838 24.5898 229.089C24.5348 229.341 24.407 229.57 24.2223 229.75C24.0376 229.929 23.8042 230.05 23.5512 230.097C23.2982 230.144 23.0369 230.116 22.7999 230.016C22.5628 229.916 22.3606 229.748 22.2183 229.533C22.076 229.319 22.0001 229.067 22 228.81C21.9999 228.635 22.0351 228.461 22.1034 228.299C22.1717 228.138 22.2718 227.991 22.3977 227.869C22.5236 227.747 22.6728 227.651 22.8364 227.588C23 227.525 23.1746 227.495 23.35 227.5ZM18.77 227.5C19.0291 227.5 19.2824 227.577 19.4978 227.721C19.7132 227.865 19.8811 228.069 19.9803 228.309C20.0794 228.548 20.1054 228.811 20.0548 229.066C20.0043 229.32 19.8795 229.553 19.6963 229.736C19.5131 229.92 19.2797 230.044 19.0256 230.095C18.7715 230.145 18.5081 230.119 18.2687 230.02C18.0293 229.921 17.8247 229.753 17.6808 229.538C17.5368 229.322 17.46 229.069 17.46 228.81C17.46 228.463 17.598 228.129 17.8437 227.884C18.0894 227.638 18.4226 227.5 18.77 227.5Z" fill="#4A6958" fill-opacity="0.15"/>
<path fill-rule="evenodd" clip-rule="evenodd" d="M203.356 113.129C204.371 112.856 205.453 112.996 206.366 113.519C207.278 114.042 207.945 114.905 208.222 115.92L231.909 204.31C232.169 205.318 232.022 206.388 231.501 207.289C231.245 207.738 230.903 208.132 230.494 208.447C230.085 208.762 229.617 208.993 229.118 209.127L203.356 216.049C202.858 216.183 202.338 216.218 201.826 216.149C201.315 216.081 200.822 215.912 200.376 215.652C199.487 215.136 198.832 214.296 198.549 213.308L177.454 134.531V210.328C177.454 211.382 177.036 212.392 176.291 213.137C175.546 213.882 174.535 214.301 173.482 214.301H113.973C112.919 214.301 111.909 213.882 111.164 213.137C110.419 212.392 110 211.382 110 210.328V118.83C110 117.776 110.419 116.766 111.164 116.021C111.909 115.276 112.919 114.857 113.973 114.857H173.561C174.615 114.857 175.625 115.276 176.37 116.021C177.115 116.766 177.534 117.776 177.534 118.83V120.091L177.733 120.032L203.356 113.129ZM177.454 122.932V123.279L201.657 213.655L227.598 206.703C228.073 206.571 228.478 206.257 228.724 205.83C228.971 205.404 229.041 204.897 228.919 204.419L205.59 117.35C205.458 116.886 205.152 116.49 204.736 116.244C204.32 115.999 203.826 115.922 203.356 116.029L177.534 122.981L177.454 122.932ZM127.32 187.089C129.23 187.1 131.076 187.772 132.545 188.992C134.014 190.212 135.015 191.903 135.376 193.778C135.738 195.653 135.439 197.595 134.529 199.274C133.619 200.953 132.155 202.264 130.387 202.985C128.619 203.705 126.656 203.79 124.832 203.225C123.008 202.661 121.436 201.481 120.384 199.887C119.333 198.293 118.866 196.384 119.064 194.485C119.262 192.586 120.113 190.815 121.471 189.472C122.237 188.701 123.148 188.09 124.152 187.674C125.157 187.258 126.233 187.045 127.32 187.049V187.089ZM209.205 186.324C211.324 185.759 213.581 186.055 215.482 187.148H215.561C216.975 187.972 218.113 189.197 218.83 190.668C219.547 192.139 219.811 193.79 219.588 195.411C219.366 197.032 218.667 198.55 217.581 199.774C216.494 200.998 215.069 201.871 213.486 202.284C211.378 202.841 209.136 202.541 207.249 201.45L207.13 201.39C205.268 200.295 203.912 198.511 203.356 196.424C202.8 194.311 203.104 192.063 204.2 190.173C205.296 188.282 207.095 186.902 209.205 186.334V186.324ZM214.012 189.681C213.102 189.153 212.055 188.906 211.005 188.972C209.954 189.037 208.947 189.412 208.109 190.049C207.271 190.687 206.64 191.557 206.296 192.552C205.953 193.547 205.911 194.621 206.176 195.64V195.769C206.538 197.085 207.396 198.21 208.57 198.907H208.639C209.842 199.598 211.267 199.794 212.612 199.453H212.741C213.745 199.171 214.643 198.601 215.327 197.814C216.01 197.026 216.447 196.055 216.584 195.022C216.722 193.989 216.553 192.937 216.099 191.999C215.646 191.06 214.927 190.275 214.032 189.74H213.962L214.012 189.681ZM159.965 187.089C161.88 187.096 163.734 187.767 165.209 188.987C166.685 190.208 167.691 191.903 168.056 193.783C168.422 195.663 168.124 197.612 167.213 199.296C166.302 200.981 164.835 202.297 163.062 203.021C161.289 203.745 159.319 203.831 157.49 203.265C155.66 202.699 154.084 201.515 153.03 199.917C151.975 198.318 151.508 196.403 151.708 194.498C151.908 192.594 152.762 190.817 154.125 189.472C154.891 188.704 155.802 188.094 156.804 187.678C157.806 187.263 158.88 187.049 159.965 187.049V187.089ZM163.739 191.578C162.866 190.702 161.717 190.156 160.486 190.034C159.256 189.911 158.021 190.218 156.992 190.904C155.963 191.59 155.204 192.611 154.844 193.794C154.484 194.977 154.545 196.248 155.017 197.39C155.489 198.533 156.343 199.477 157.433 200.061C158.523 200.644 159.782 200.832 160.994 200.591C162.207 200.351 163.299 199.697 164.084 198.742C164.869 197.786 165.298 196.588 165.298 195.352C165.299 194.651 165.162 193.957 164.894 193.31C164.627 192.662 164.234 192.074 163.739 191.578ZM131.084 191.578C130.212 190.71 129.065 190.171 127.84 190.053C126.614 189.935 125.386 190.246 124.364 190.932C123.342 191.618 122.589 192.637 122.234 193.815C121.878 194.994 121.942 196.259 122.415 197.396C122.888 198.532 123.74 199.47 124.826 200.049C125.912 200.628 127.165 200.813 128.372 200.572C129.58 200.331 130.666 199.679 131.447 198.727C132.227 197.776 132.654 196.583 132.654 195.352C132.655 194.65 132.517 193.955 132.247 193.307C131.978 192.66 131.583 192.072 131.084 191.578ZM119.365 134.253H135.256V138.226H119.365V134.253ZM190.584 147.522L205.938 143.41L206.981 147.283L191.617 151.405L190.624 147.522H190.584ZM187.853 137.342L203.207 133.23L204.25 137.104L188.895 141.215L187.902 137.342H187.853ZM185.479 128.513L200.833 124.401L201.826 128.275L186.522 132.386L185.529 128.513H185.479ZM119.365 125.107H135.256V129.079H119.365V125.107ZM152.02 144.781H167.91V148.753H152.02V144.781ZM152.02 134.243H167.91V138.216H152.02V134.243ZM152.02 125.097H167.91V129.069H152.02V125.097ZM119.365 144.781H135.256V148.753H119.365V144.781ZM145.257 117.668H172.807C173.301 117.67 173.774 117.868 174.124 118.218C174.473 118.567 174.671 119.041 174.674 119.535V209.653C174.668 210.147 174.47 210.618 174.121 210.968C173.772 211.317 173.3 211.515 172.807 211.52H145.257V117.668ZM114.648 117.668H141.85V211.52H114.648C114.154 211.515 113.682 211.317 113.333 210.968C112.984 210.618 112.786 210.147 112.781 209.653V119.535C112.783 119.041 112.981 118.567 113.331 118.218C113.68 117.868 114.154 117.67 114.648 117.668Z" fill="#4A6958" fill-opacity="0.15"/>
<path fill-rule="evenodd" clip-rule="evenodd" d="M314.617 18.2128L318.881 24.2208C319.017 24.4086 319.114 24.6216 319.168 24.8475C319.221 25.0733 319.229 25.3075 319.191 25.5364C319.153 25.7654 319.07 25.9845 318.947 26.1812C318.824 26.3778 318.663 26.5481 318.474 26.6821L315.169 29.0369L308.851 20.1896L312.165 17.8348C312.545 17.5654 313.016 17.4569 313.475 17.5332C313.934 17.6094 314.345 17.8642 314.617 18.2418V18.2128ZM235.893 88.2738C236.106 88.1707 236.337 88.1106 236.574 88.097C236.81 88.0833 237.047 88.1163 237.27 88.1942C237.494 88.272 237.7 88.3931 237.877 88.5506C238.054 88.7081 238.198 88.8988 238.301 89.112C238.404 89.3251 238.464 89.5565 238.478 89.7929C238.491 90.0293 238.458 90.266 238.38 90.4896C238.302 90.7132 238.181 90.9193 238.024 91.0961C237.866 91.2729 237.676 91.417 237.462 91.52C235.788 92.2876 233.93 92.5665 232.104 92.3243C230.946 92.1906 229.804 91.9472 228.693 91.5976C228.693 92.0627 228.79 92.5666 228.848 92.9833C229.022 94.2818 229.264 95.619 229.565 96.9854C229.663 97.4445 229.579 97.9235 229.332 98.3226C228.468 99.9208 227.921 101.672 227.724 103.478C227.645 104.084 227.701 104.701 227.887 105.284C228.072 105.866 228.384 106.401 228.799 106.85C229.906 107.82 231.275 108.441 232.734 108.633C236.077 109.107 239.478 108.992 242.782 108.294C246.701 107.606 250.546 106.548 254.266 105.135C257.142 104.083 259.849 102.614 262.299 100.774C264.411 99.0882 265.38 96.3167 266.175 93.9911C266.349 93.4969 266.514 93.022 266.592 92.8282L266.834 92.1693C267.871 89.3203 269.663 84.417 272.008 82.5662C272.394 82.2745 272.88 82.1479 273.358 82.2142C273.837 82.2805 274.27 82.5344 274.562 82.9199C274.854 83.3054 274.98 83.791 274.914 84.2698C274.848 84.7487 274.594 85.1816 274.208 85.4733C272.726 86.5683 271.204 90.8902 270.235 93.3806C270.051 93.8942 270.09 93.7973 270.003 94.0492C269.799 94.5725 269.702 94.8632 269.596 95.1539C268.627 97.9738 267.454 101.269 264.537 103.604C261.798 105.653 258.771 107.286 255.554 108.449C254.779 108.749 254.004 109.03 253.219 109.292C253.25 110.473 253.208 111.654 253.093 112.829C252.935 114.466 252.64 116.087 252.211 117.674C252.083 118.137 251.776 118.529 251.358 118.766C250.94 119.002 250.445 119.062 249.982 118.934C249.52 118.805 249.127 118.498 248.891 118.08C248.655 117.662 248.594 117.168 248.723 116.705C249.105 115.309 249.367 113.882 249.508 112.441C249.575 111.753 249.614 111.046 249.624 110.339C247.492 110.92 245.389 111.385 243.403 111.744C239.669 112.523 235.827 112.635 232.055 112.073C229.879 111.755 227.851 110.782 226.241 109.282C225.46 108.48 224.866 107.515 224.501 106.456C224.136 105.397 224.009 104.271 224.129 103.158C224.336 101.029 224.94 98.9586 225.912 97.0532C225.669 95.8613 225.456 94.6306 225.291 93.3515C225.096 91.9568 224.97 90.5532 224.914 89.1459C224.909 89.0911 224.909 89.036 224.914 88.9812C224.908 88.9199 224.908 88.8583 224.914 88.7971C224.652 86.0741 224.623 83.4189 224.584 80.7347V80.1048L220.417 79.8626C219.385 79.8357 218.38 79.5274 217.51 78.9711C216.718 78.4576 216.081 77.7371 215.669 76.8877C215.22 76.0127 214.99 75.0416 215 74.0581C215.081 72.3768 215.624 70.7504 216.57 69.3583L221.037 60.2494C223.218 55.7724 223.198 55.2298 223.101 52.846C223.101 51.7897 223.005 50.4331 223.101 48.4078C223.156 46.0907 223.449 43.7852 223.974 41.5277C224.328 40.0278 224.831 38.567 225.476 37.167L217.336 33.6301C217.115 33.539 216.915 33.405 216.747 33.236C216.578 33.067 216.445 32.8662 216.355 32.6454C216.265 32.4246 216.22 32.188 216.222 31.9495C216.224 31.711 216.273 31.4753 216.367 31.2559C216.421 31.1352 216.489 31.0213 216.57 30.9168C235.951 4.51066 257.841 -2.76677 276.359 0.876788C287.092 3.10409 296.831 8.70689 304.151 16.8658L304.568 17.3213L304.423 17.4182L301.593 19.3756L301.486 19.2593C294.689 11.6942 285.656 6.49376 275.7 4.41376C258.868 1.09967 238.877 7.64063 220.863 31.2366L228.615 34.5991C228.722 34.6395 228.826 34.6881 228.925 34.7445C229.334 34.9935 229.628 35.3941 229.742 35.8589C229.856 36.3237 229.782 36.8149 229.536 37.2252C228.594 38.8264 227.902 40.5614 227.481 42.3707C227.017 44.3906 226.757 46.4522 226.706 48.5241C226.648 50.4622 226.706 51.6928 226.706 52.7006C226.823 55.7628 226.852 56.5767 224.264 61.8289L219.787 70.9766C219.747 71.0709 219.698 71.1616 219.642 71.2479C219.027 72.0987 218.667 73.1071 218.605 74.155C218.605 74.5459 218.698 74.9312 218.876 75.2791C219.002 75.5478 219.2 75.776 219.448 75.938C219.76 76.1326 220.118 76.2397 220.485 76.2481H220.63L225.795 76.5485C225.964 76.4898 226.14 76.4603 226.319 76.4613H226.503L231.261 76.8683C231.737 76.9068 232.179 77.1332 232.489 77.4976C232.799 77.8619 232.951 78.3344 232.913 78.8112C232.874 79.2879 232.648 79.7298 232.284 80.0397C231.919 80.3495 231.447 80.5019 230.97 80.4634H230.873L228.189 80.2987V80.6766C228.189 83.0119 228.257 85.3376 228.441 87.6827C229.727 88.1966 231.071 88.5513 232.443 88.7389C233.604 88.9086 234.79 88.7474 235.864 88.2738H235.893ZM315.179 34.8801C316.448 38.2943 317.345 41.8357 317.853 45.4426C320.266 62.8173 313.299 81.3937 291.845 93.9911C291.666 94.0987 291.469 94.1711 291.263 94.2043C291.279 96.7664 291.441 99.3255 291.748 101.869C292.315 106.597 293.447 111.239 295.12 115.697C295.211 115.92 295.257 116.16 295.255 116.401C295.252 116.642 295.201 116.88 295.105 117.101C295.009 117.322 294.869 117.522 294.694 117.688C294.519 117.854 294.313 117.983 294.087 118.068C293.862 118.153 293.621 118.192 293.38 118.183C293.139 118.173 292.903 118.115 292.685 118.012C292.466 117.91 292.271 117.764 292.11 117.585C291.949 117.405 291.826 117.195 291.748 116.967C289.97 112.244 288.766 107.325 288.162 102.315C287.521 96.844 287.495 91.3184 288.085 85.8415C288.141 85.3722 288.379 84.9437 288.749 84.6485C289.118 84.3532 289.588 84.2149 290.058 84.2631C290.529 84.3114 290.961 84.5425 291.263 84.9067C291.564 85.2708 291.71 85.7388 291.67 86.2097C291.534 87.5276 291.428 88.8261 291.37 90.0859C310.295 78.3994 316.458 61.6254 314.278 45.9755C313.856 42.9466 313.135 39.9668 312.126 37.0798L315.179 34.8801ZM269.101 24.6084C269.655 23.6833 270.392 22.8811 271.267 22.2512C272.141 21.6213 273.136 21.1769 274.189 20.9454C275.971 20.5959 277.82 20.8624 279.431 21.7013C281.017 22.4909 282.326 23.7449 283.181 25.2964C283.493 25.875 283.73 26.4903 283.889 27.1279C284.838 27.1181 285.782 27.2721 286.68 27.5833C287.39 27.8268 288.07 28.152 288.705 28.5523L285.255 31.004C284.786 30.8505 284.295 30.7784 283.802 30.7908C283.452 31.8844 282.885 32.8963 282.135 33.7657C281.991 33.9584 281.81 34.1196 281.601 34.2395C281.393 34.3594 281.163 34.4355 280.924 34.4631C280.685 34.4907 280.443 34.4692 280.213 34.4C279.983 34.3307 279.769 34.2152 279.586 34.0604C279.402 33.9056 279.251 33.7149 279.144 33.5C279.036 33.2851 278.974 33.0504 278.96 32.8105C278.947 32.5706 278.983 32.3304 279.065 32.1047C279.148 31.8791 279.276 31.6727 279.441 31.4982C280.013 30.909 280.384 30.1532 280.499 29.3398C280.614 28.5264 280.467 27.6976 280.081 26.9728C279.57 26.0561 278.792 25.3161 277.852 24.8506C276.961 24.3767 275.936 24.2195 274.945 24.4049C273.627 24.6762 272.348 25.6937 271.466 27.7674C271.476 27.8608 271.476 27.955 271.466 28.0484V64.455C271.498 64.5462 271.52 64.6403 271.534 64.736C272.047 67.8175 273.375 69.3001 274.877 69.7168C275.614 69.8735 276.376 69.868 277.111 69.7006C277.845 69.5333 278.534 69.2082 279.131 68.7478C279.74 68.3577 280.25 67.8319 280.622 67.2115C280.993 66.5911 281.216 65.893 281.272 65.1721C281.272 63.6022 280.139 61.8289 277.057 60.2591C276.85 60.1528 276.665 60.0067 276.514 59.8292C276.363 59.6516 276.249 59.4461 276.177 59.2243C276.106 59.0025 276.079 58.7688 276.097 58.5365C276.116 58.3042 276.181 58.0778 276.287 57.8704C276.393 57.663 276.539 57.4785 276.717 57.3275C276.894 57.1766 277.1 57.062 277.322 56.9905C277.543 56.919 277.777 56.8918 278.009 56.9106C278.242 56.9294 278.468 56.9938 278.675 57.1C282.077 58.8346 283.86 60.9762 284.49 63.1177C285.684 62.6659 286.702 61.8443 287.397 60.7727C288.508 59.1233 288.973 57.1228 288.705 55.1523C288.629 54.7786 288.673 54.3906 288.829 54.0429C288.986 53.6952 289.247 53.4054 289.577 53.2142C290.736 52.5743 291.752 51.7037 292.562 50.656C292.991 50.1046 293.319 49.4811 293.531 48.8148L294.5 48.6985C295.391 48.642 296.25 48.3402 296.98 47.8264L297.446 47.4969V47.5841C297.384 49.4868 296.73 51.3228 295.575 52.8363C294.717 53.9702 293.676 54.9528 292.494 55.7434C292.624 58.2732 291.919 60.7755 290.488 62.8658C289.121 64.9238 286.996 66.3587 284.577 66.8582C283.917 69.0545 282.453 70.921 280.477 72.085C278.501 73.249 276.158 73.6249 273.917 73.1375C272.919 72.8499 271.992 72.3564 271.196 71.6888C270.4 71.0212 269.752 70.1943 269.295 69.2614C268.75 70.2636 267.997 71.1376 267.086 71.8246C266.175 72.5115 265.127 72.9955 264.014 73.2441C262.837 73.4609 261.627 73.4217 260.467 73.129C259.306 72.8364 258.222 72.2973 257.289 71.5483C255.774 70.3994 254.708 68.7577 254.275 66.9066C253.476 66.8711 252.686 66.721 251.93 66.4609C250.136 65.8329 248.541 64.7393 247.308 63.2921C245.966 61.7582 245.091 59.8716 244.788 57.8559C244.626 56.731 244.662 55.5864 244.895 54.4739C244.073 53.73 243.359 52.8756 242.773 51.9351C241.789 50.3708 241.268 48.5599 241.271 46.712C241.303 44.7296 241.964 42.8087 243.16 41.2273C243.989 40.1046 244.994 39.1229 246.135 38.3202C246.118 37.9974 246.118 37.6739 246.135 37.3512C246.213 34.8473 247.108 32.4378 248.684 30.4904C250.074 28.718 252.074 27.5263 254.295 27.1472C254.364 26.8419 254.451 26.541 254.556 26.246C255.264 24.4159 256.582 22.8861 258.287 21.9145C260.008 20.8971 262.044 20.5519 264.004 20.9454C265.056 21.1771 266.049 21.6216 266.922 22.2515C267.795 22.8815 268.53 23.6836 269.082 24.6084H269.101ZM254.459 63.3018C255.167 61.0828 257.018 58.883 260.525 57.0903C260.734 56.9762 260.963 56.9051 261.199 56.8811C261.435 56.8571 261.674 56.8809 261.901 56.9508C262.127 57.0208 262.338 57.1356 262.52 57.2885C262.701 57.4414 262.85 57.6291 262.958 57.8407C263.066 58.0523 263.13 58.2833 263.147 58.5201C263.163 58.757 263.133 58.9948 263.056 59.2194C262.979 59.444 262.858 59.6509 262.699 59.8279C262.541 60.0048 262.349 60.1481 262.134 60.2494C258.888 61.9064 257.638 63.8057 257.638 65.4628C257.673 66.1215 257.856 66.7637 258.175 67.3411C258.494 67.9185 258.94 68.416 259.479 68.7962C260.019 69.2241 260.644 69.5318 261.312 69.6989C261.981 69.866 262.677 69.8886 263.355 69.7653C265.002 69.4164 266.601 67.895 267.425 64.5616V29.5698C266.601 26.2654 265.002 24.7247 263.355 24.4049C262.242 24.1999 261.093 24.4139 260.128 25.0057C259.136 25.5642 258.366 26.4469 257.948 27.5058C257.444 28.8721 257.744 30.5582 259.45 32.1474C259.755 32.4723 259.926 32.9007 259.928 33.3464C259.93 33.7921 259.763 34.2221 259.461 34.5498C259.159 34.8776 258.744 35.0789 258.3 35.1132C257.856 35.1475 257.415 35.0123 257.066 34.7348C255.884 33.6914 254.998 32.3543 254.498 30.8586C253.344 31.1718 252.324 31.8521 251.591 32.7967C250.522 34.1278 249.917 35.7709 249.866 37.4771C249.848 37.9955 249.877 38.5145 249.953 39.0276C250.002 39.3784 249.947 39.7357 249.795 40.0558C249.644 40.3759 249.403 40.6449 249.101 40.83C247.979 41.4917 246.992 42.3597 246.193 43.3882C245.454 44.3565 245.037 45.5327 245.002 46.7508C245.011 47.9057 245.347 49.0345 245.971 50.0067C246.501 50.8998 247.195 51.6854 248.015 52.3227C248.344 52.55 248.59 52.8781 248.716 53.2574C248.842 53.6368 248.841 54.0468 248.713 54.4255C248.387 55.3745 248.287 56.3867 248.422 57.381C248.624 58.6945 249.199 59.9223 250.079 60.918C250.893 61.8726 251.942 62.5976 253.122 63.0208C253.553 63.1706 254.003 63.2587 254.459 63.2824V63.3018ZM254.866 38.3977C255.2 38.07 255.651 37.8885 256.119 37.893C256.587 37.8976 257.034 38.0878 257.362 38.4219C257.689 38.756 257.871 39.2066 257.866 39.6746C257.862 40.1425 257.671 40.5895 257.337 40.9172C255.889 42.3382 255.036 44.258 254.954 46.2856C254.882 48.3933 255.57 50.4566 256.892 52.0998C257.185 52.4648 257.321 52.9311 257.27 53.3964C257.219 53.8616 256.985 54.2876 256.62 54.5805C256.44 54.7256 256.232 54.8337 256.01 54.8985C255.787 54.9634 255.554 54.9838 255.324 54.9586C254.858 54.9078 254.433 54.6742 254.14 54.3092C252.268 52.0086 251.299 49.104 251.417 46.1403C251.525 43.2123 252.753 40.4377 254.847 38.388L254.866 38.3977ZM294.19 43.8437L287.716 44.7158C282.639 45.3941 282.503 46.3922 284.596 41.9734L287.891 35.0061L307.175 21.3137L313.493 30.1706L294.19 43.8534V43.8437ZM288.967 36.5178L293.114 42.332L288.86 42.9037C285.526 43.3495 285.43 43.9987 286.806 41.0916L288.967 36.5178Z" fill="#4A6958" fill-opacity="0.15"/>
</svg>
