<svg width="9" height="10" viewBox="0 0 9 10" fill="none" xmlns="http://www.w3.org/2000/svg">
<path fill-rule="evenodd" clip-rule="evenodd" d="M4.12532 8.30576C4.04038 8.3056 3.95729 8.33065 3.88659 8.37774C3.81589 8.42482 3.76074 8.49182 3.72813 8.57025C3.69552 8.64869 3.68691 8.73504 3.70338 8.81837C3.71986 8.9017 3.76069 8.97827 3.8207 9.03839C3.88072 9.09851 3.95721 9.13947 4.04051 9.1561C4.12382 9.17273 4.21018 9.16427 4.28867 9.1318C4.36717 9.09933 4.43426 9.0443 4.48147 8.97368C4.52868 8.90306 4.55388 8.82003 4.55388 8.73508C4.55388 8.62135 4.50875 8.51227 4.42841 8.43177C4.34806 8.35128 4.23905 8.30596 4.12532 8.30576ZM5.227 5.85936C4.66888 6.48648 3.40467 6.37609 2.93777 5.85936C3.0546 5.72057 3.16265 5.57462 3.2613 5.42237L3.3257 5.32884C3.5547 5.48368 3.82594 5.56401 4.10232 5.55883C4.41297 5.56112 4.71422 5.45236 4.95178 5.25217C5.01541 5.4423 5.10511 5.70373 5.19864 5.82869C5.20672 5.83921 5.21627 5.84851 5.227 5.85629V5.85936ZM7.4733 6.97101C7.51645 6.97332 7.55861 6.98473 7.59704 7.00448C7.63547 7.02422 7.66929 7.05187 7.69629 7.0856C7.72329 7.11933 7.74286 7.15838 7.75371 7.20021C7.76456 7.24203 7.76645 7.28567 7.75926 7.32827L7.48863 9.42124H8.17862C8.17862 8.30346 8.57498 6.93268 7.40507 6.27795C6.96961 6.03492 5.84723 5.95289 5.3581 5.63166C5.27624 5.45582 5.20681 5.27444 5.15034 5.08887C5.14497 5.07201 5.15417 5.09961 5.14574 5.07431C5.32135 4.87386 5.47791 4.65749 5.6134 4.42802L6.01666 3.78939C6.16462 3.56936 6.24129 3.36773 6.24665 3.2029C6.24922 3.12965 6.23423 3.05683 6.20296 2.99054C6.17256 2.92502 6.12451 2.86927 6.06419 2.82954C6.03364 2.80945 6.00099 2.79274 5.96683 2.77971C5.99472 2.39704 6.00112 2.01311 5.98599 1.62973C5.97674 1.54134 5.96007 1.45389 5.93616 1.3683C5.78666 0.843908 5.3351 0.460581 4.81684 0.281184C4.56538 0.194552 4.66275 -0.012445 4.40668 0.000588159C3.80409 0.0335543 2.87337 0.421481 2.51841 0.833175C2.01855 1.4097 2.14735 2.11962 2.16422 2.82648C2.1127 2.8401 2.06585 2.86749 2.02871 2.90572C1.99157 2.94394 1.96553 2.99155 1.95339 3.04344C1.92119 3.1707 1.95339 3.3501 2.06455 3.59466C2.06455 3.59466 2.06455 3.6031 2.07145 3.6077L2.53145 4.36438C2.70854 4.65648 2.88871 4.94858 3.12867 5.17397L3.14094 5.18471L3.06427 5.29204C2.98761 5.40933 2.89407 5.54273 2.80974 5.647C2.30988 5.95366 1.21127 6.04106 0.781174 6.28025C-0.292142 6.87978 0.0735521 8.36019 0.0145197 9.42354H0.697609L0.42698 7.33057C0.419789 7.28797 0.421682 7.24433 0.432534 7.20251C0.443386 7.16069 0.462953 7.12163 0.489952 7.0879C0.516951 7.05417 0.550773 7.02652 0.589202 7.00678C0.62763 6.98703 0.669798 6.97562 0.712942 6.97331L7.4733 6.97101ZM5.73453 2.96831C5.80652 2.96725 5.87747 2.98552 5.93999 3.02121C5.96511 3.03806 5.98524 3.06136 5.99826 3.08867C6.01239 3.12288 6.01868 3.15982 6.01666 3.19677C6.01282 3.31943 5.94843 3.47967 5.82423 3.66443L5.42097 4.30612C5.2592 4.56295 5.08901 4.82514 4.87894 5.01757C4.67075 5.22082 4.39097 5.334 4.10002 5.33267C3.94881 5.33547 3.79855 5.30817 3.65798 5.25236C3.51742 5.19656 3.38935 5.11336 3.28123 5.00761C3.0635 4.80368 2.89254 4.52538 2.72311 4.24632L2.26925 3.49807C2.18415 3.30487 2.15349 3.1753 2.17265 3.10017C2.18415 3.05494 2.23398 3.03271 2.31908 3.02811C2.33748 3.02811 2.35588 3.02811 2.37428 3.02811C2.39548 3.02701 2.41672 3.02701 2.43791 3.02811C2.44962 3.02966 2.46148 3.02966 2.47318 3.02811C2.51471 3.02997 2.55632 3.02766 2.59738 3.02121L2.44405 2.33122C3.59863 2.51291 4.46265 1.65503 5.68316 2.15949L5.595 2.97444C5.6416 2.97712 5.68835 2.97507 5.73453 2.96831Z" fill="#4A6958"/>
</svg>
